<svg width="1140" height="173" viewBox="0 0 1140 173" fill="none" xmlns="http://www.w3.org/2000/svg">
<path fill-rule="evenodd" clip-rule="evenodd" d="M86.2179 97.0287C92.1166 97.0287 96.8985 92.2468 96.8985 86.3481C96.8985 80.4494 92.1166 75.6675 86.2179 75.6675C80.3191 75.6675 75.5372 80.4494 75.5372 86.3481C75.5372 92.2468 80.3191 97.0287 86.2179 97.0287ZM86.2179 92.9983C89.8907 92.9983 92.8681 90.0209 92.8681 86.3481C92.8681 82.6753 89.8907 79.6979 86.2179 79.6979C82.5451 79.6979 79.5677 82.6753 79.5677 86.3481C79.5677 90.0209 82.5451 92.9983 86.2179 92.9983Z" fill="white"/>
<path fill-rule="evenodd" clip-rule="evenodd" d="M83.3004 26.3628L86.1699 31.3329L89.0586 26.3296C103.813 28.1598 120.61 39.4754 87.1881 73.4369V54.6725L94.0525 47.808C94.2857 47.8896 94.5363 47.9339 94.7973 47.9339C96.0426 47.9339 97.0521 46.9244 97.0521 45.6791C97.0521 44.4338 96.0426 43.4243 94.7973 43.4243C93.552 43.4243 92.5425 44.4338 92.5425 45.6791C92.5425 46.0531 92.6336 46.4058 92.7947 46.7163L86.3574 53.1536L79.9386 46.7347C80.1057 46.4198 80.2004 46.0605 80.2004 45.6791C80.2004 44.4338 79.1909 43.4243 77.9456 43.4243C76.7003 43.4243 75.6908 44.4338 75.6908 45.6791C75.6908 46.9244 76.7003 47.9339 77.9456 47.9339C78.1988 47.9339 78.4423 47.8922 78.6695 47.8152L85.5267 54.6724V73.5338C52.1738 39.6967 68.597 28.2954 83.3004 26.3628Z" fill="white"/>
<path fill-rule="evenodd" clip-rule="evenodd" d="M141.693 62.9167L138.178 67.5722L144.018 68.185C148.182 82.4623 144.27 102.475 99.1296 85.6451L116.713 78.0067L125.881 81.5083C125.897 81.7554 125.955 82.0033 126.059 82.2427C126.556 83.3848 127.904 83.8998 129.071 83.3929C130.238 82.886 130.781 81.5491 130.285 80.4069C129.789 79.2648 128.441 78.7498 127.274 79.2567C126.924 79.4089 126.629 79.636 126.403 79.9102L117.806 76.6264L121.263 68.1263C121.625 68.1514 121.999 68.092 122.357 67.9368C123.524 67.4299 124.067 66.093 123.571 64.9508C123.075 63.8087 121.727 63.2937 120.56 63.8006C119.393 64.3075 118.849 65.6444 119.345 66.7866C119.446 67.0188 119.582 67.2251 119.745 67.4021L116.051 76.483L98.3764 84.1609C116.796 39.7955 134.024 50.2175 141.693 62.9167Z" fill="white"/>
<path fill-rule="evenodd" clip-rule="evenodd" d="M28.6002 68.4367L34.4012 67.8279L30.8634 63.1415C38.4569 50.3542 55.7535 39.5534 74.2621 84.0334L56.6779 76.3949L52.9803 67.3046C53.1496 67.1239 53.2911 66.912 53.3951 66.6726C53.8913 65.5304 53.3475 64.1936 52.1805 63.6866C51.0136 63.1797 49.6654 63.6947 49.1692 64.8369C48.673 65.9791 49.2168 67.3159 50.3838 67.8228C50.7342 67.975 51.1009 68.0351 51.456 68.0138L54.9235 76.5385L46.3513 79.8128C46.1228 79.5312 45.8238 79.298 45.4663 79.1428C44.2994 78.6358 42.9511 79.1508 42.455 80.293C41.9588 81.4352 42.5026 82.772 43.6696 83.279C44.8365 83.7859 46.1847 83.2709 46.6809 82.1287C46.7817 81.8966 46.8396 81.6564 46.858 81.4167L56.0159 77.9187L73.6905 85.5965C28.6939 102.413 24.5531 82.7093 28.6002 68.4367Z" fill="white"/>
<path fill-rule="evenodd" clip-rule="evenodd" d="M124.898 133.493L119.63 130.991L120.209 136.834C107.066 143.795 86.6757 144.005 94.0434 96.3961L105.075 112.075L103.497 121.761C103.258 121.827 103.027 121.934 102.814 122.084C101.795 122.801 101.563 124.225 102.295 125.266C103.027 126.306 104.446 126.569 105.465 125.852C106.483 125.136 106.715 123.711 105.983 122.671C105.763 122.358 105.482 122.116 105.167 121.949L106.647 112.866L115.671 114.536C115.719 114.895 115.853 115.25 116.077 115.569C116.809 116.609 118.228 116.872 119.247 116.155C120.265 115.439 120.497 114.014 119.765 112.974C119.033 111.933 117.614 111.671 116.596 112.387C116.389 112.533 116.214 112.708 116.073 112.903L106.434 111.119L95.3447 95.3584C142.517 104.44 135.787 123.417 124.898 133.493Z" fill="white"/>
<path fill-rule="evenodd" clip-rule="evenodd" d="M53.6566 136.957L54.2318 131.153L48.9277 133.671C37.9374 123.652 30.8522 104.531 78.1523 95.3856L67.1206 111.065L57.471 112.85C57.3283 112.648 57.1494 112.467 56.9359 112.317C55.9175 111.6 54.4983 111.863 53.7662 112.903C53.0341 113.944 53.2662 115.368 54.2847 116.085C55.3031 116.801 56.7223 116.539 57.4544 115.498C57.6742 115.186 57.8071 114.839 57.8579 114.486L66.9072 112.812L68.3831 121.869C68.0612 122.036 67.7725 122.282 67.5483 122.6C66.8162 123.641 67.0483 125.065 68.0667 125.782C69.0852 126.498 70.5043 126.236 71.2365 125.195C71.9686 124.155 71.7365 122.73 70.718 122.014C70.5109 121.868 70.2873 121.763 70.0563 121.696L68.4795 112.02L79.5684 96.2601C86.9529 143.727 66.818 143.803 53.6566 136.957Z" fill="white"/>
<path fill-rule="evenodd" clip-rule="evenodd" d="M86.3455 163.398C128.9 163.398 163.398 128.9 163.398 86.3455C163.398 43.7905 128.9 9.29279 86.3455 9.29279C43.7905 9.29279 9.29279 43.7905 9.29279 86.3455C9.29279 128.9 43.7905 163.398 86.3455 163.398ZM86.3455 172.691C134.033 172.691 172.691 134.033 172.691 86.3455C172.691 38.6582 134.033 0 86.3455 0C38.6582 0 0 38.6582 0 86.3455C0 134.033 38.6582 172.691 86.3455 172.691Z" fill="white"/>
<path d="M258.047 32.2122C251.248 28.3814 244.174 26.0555 236.825 25.2346V86.1861H223.433V25.2346C216.015 26.0555 208.907 28.3814 202.108 32.2122L197.472 21.9511C202.279 19.0779 207.43 16.9231 212.925 15.4865C218.488 14.0499 224.188 13.3317 230.026 13.3317C235.864 13.3317 241.564 14.0499 247.127 15.4865C252.69 16.9231 257.876 19.0779 262.683 21.9511L258.047 32.2122Z" fill="white"/>
<path d="M290.859 76.0275C296.834 76.0275 301.813 74.0437 305.797 70.076L312.596 77.9771C310.192 80.9187 307.102 83.1419 303.324 84.6469C299.547 86.1519 295.289 86.9044 290.55 86.9044C284.506 86.9044 279.183 85.7072 274.582 83.3129C269.98 80.9187 266.409 77.6009 263.868 73.3596C261.395 69.0499 260.159 64.1929 260.159 58.7887C260.159 53.4529 261.361 48.6643 263.765 44.4231C266.237 40.1134 269.603 36.7614 273.861 34.3671C278.188 31.9728 283.064 30.7757 288.489 30.7757C293.64 30.7757 298.311 31.9044 302.5 34.1619C306.758 36.3509 310.124 39.5319 312.596 43.7048C315.069 47.8092 316.305 52.632 316.305 58.173L274.17 66.382C275.475 69.5288 277.569 71.923 280.454 73.5648C283.339 75.2066 286.807 76.0275 290.859 76.0275ZM288.489 41.0369C283.751 41.0369 279.905 42.576 276.951 45.6544C274.067 48.7328 272.624 52.8714 272.624 58.0704V58.173L303.736 52.2216C302.844 48.8696 301.024 46.1675 298.276 44.1152C295.598 42.063 292.336 41.0369 288.489 41.0369Z" fill="white"/>
<path d="M340.936 39.3951C344.645 33.6488 351.169 30.7757 360.51 30.7757V42.9865C359.411 42.7813 358.415 42.6787 357.522 42.6787C352.509 42.6787 348.594 44.1494 345.778 47.091C342.962 49.9641 341.554 54.137 341.554 59.6096V86.1861H328.677V31.3913H340.936V39.3951Z" fill="white"/>
<path d="M424.707 31.3913V86.1861H412.448V79.1059C410.319 81.7054 407.674 83.655 404.515 84.9547C401.425 86.2545 397.991 86.9044 394.213 86.9044C388.856 86.9044 384.049 85.7414 379.791 83.4156C375.601 81.0897 372.304 77.8061 369.901 73.5648C367.566 69.3235 366.398 64.3982 366.398 58.7887C366.398 53.1793 367.566 48.2881 369.901 44.1152C372.304 39.8739 375.601 36.5903 379.791 34.2645C384.049 31.9386 388.856 30.7757 394.213 30.7757C397.785 30.7757 401.047 31.3913 404 32.6227C407.022 33.854 409.632 35.6668 411.83 38.0611V31.3913H424.707ZM395.656 75.9249C400.394 75.9249 404.309 74.3515 407.4 71.2047C410.49 68.058 412.036 63.9193 412.036 58.7887C412.036 53.6581 410.49 49.5194 407.4 46.3727C404.309 43.2259 400.394 41.6525 395.656 41.6525C390.917 41.6525 387.002 43.2259 383.911 46.3727C380.889 49.5194 379.378 53.6581 379.378 58.7887C379.378 63.9193 380.889 68.058 383.911 71.2047C387.002 74.3515 390.917 75.9249 395.656 75.9249Z" fill="white"/>
<path d="M472.049 30.7757C477.406 30.7757 482.18 31.9386 486.369 34.2645C490.627 36.5903 493.958 39.8739 496.362 44.1152C498.766 48.3565 499.968 53.2477 499.968 58.7887C499.968 64.3298 498.766 69.2551 496.362 73.5648C493.958 77.8061 490.627 81.0897 486.369 83.4156C482.18 85.7414 477.406 86.9044 472.049 86.9044C464.632 86.9044 458.76 84.4417 454.433 79.5163V106.093H441.556V31.3913H453.815V38.5742C455.944 35.9747 458.554 34.0251 461.644 32.7253C464.804 31.4256 468.272 30.7757 472.049 30.7757ZM470.607 75.9249C475.346 75.9249 479.226 74.3515 482.248 71.2047C485.339 68.058 486.884 63.9193 486.884 58.7887C486.884 53.6581 485.339 49.5194 482.248 46.3727C479.226 43.2259 475.346 41.6525 470.607 41.6525C467.516 41.6525 464.735 42.3708 462.262 43.8074C459.79 45.1755 457.833 47.1594 456.39 49.7589C454.948 52.3584 454.227 55.3683 454.227 58.7887C454.227 62.2091 454.948 65.2191 456.39 67.8186C457.833 70.4181 459.79 72.4361 462.262 73.8727C464.735 75.2408 467.516 75.9249 470.607 75.9249Z" fill="white"/>
<path d="M512.18 31.3913H525.058V86.1861H512.18V31.3913ZM518.671 22.3615C516.335 22.3615 514.378 21.6432 512.798 20.2067C511.219 18.7017 510.429 16.8547 510.429 14.6656C510.429 12.4766 511.219 10.6638 512.798 9.22718C514.378 7.72221 516.335 6.96973 518.671 6.96973C521.006 6.96973 522.963 7.68801 524.543 9.12457C526.122 10.4927 526.912 12.2371 526.912 14.3578C526.912 16.6152 526.122 18.5307 524.543 20.104C523.032 21.609 521.074 22.3615 518.671 22.3615Z" fill="white"/>
<path d="M595.736 31.3913V86.1861H583.476V79.1059C581.347 81.7054 578.703 83.655 575.544 84.9547C572.453 86.2545 569.019 86.9044 565.242 86.9044C559.885 86.9044 555.077 85.7414 550.819 83.4156C546.63 81.0897 543.333 77.8061 540.929 73.5648C538.594 69.3235 537.426 64.3982 537.426 58.7887C537.426 53.1793 538.594 48.2881 540.929 44.1152C543.333 39.8739 546.63 36.5903 550.819 34.2645C555.077 31.9386 559.885 30.7757 565.242 30.7757C568.813 30.7757 572.075 31.3913 575.029 32.6227C578.051 33.854 580.66 35.6668 582.858 38.0611V31.3913H595.736ZM566.684 75.9249C571.423 75.9249 575.338 74.3515 578.428 71.2047C581.519 68.058 583.064 63.9193 583.064 58.7887C583.064 53.6581 581.519 49.5194 578.428 46.3727C575.338 43.2259 571.423 41.6525 566.684 41.6525C561.945 41.6525 558.03 43.2259 554.94 46.3727C551.918 49.5194 550.407 53.6581 550.407 58.7887C550.407 63.9193 551.918 68.058 554.94 71.2047C558.03 74.3515 561.945 75.9249 566.684 75.9249Z" fill="white"/>
<path d="M698.54 79.3111C695.312 81.8422 691.157 83.7918 686.075 85.16C680.992 86.5281 675.498 87.2122 669.592 87.2122C662.655 87.2122 656.749 86.3229 651.872 84.5443C647.065 82.7657 643.425 80.303 640.952 77.1562C638.48 74.0095 637.244 70.3839 637.244 66.2794C637.244 62.3117 638.342 58.8571 640.54 55.9156C642.738 52.974 645.691 50.8192 649.4 49.451C646.584 47.9461 644.352 45.8596 642.704 43.1917C641.124 40.4554 640.334 37.4112 640.334 34.0593C640.334 30.2284 641.467 26.7738 643.734 23.6955C646.069 20.5487 649.537 18.0518 654.139 16.2048C658.74 14.2894 664.406 13.3317 671.137 13.3317C675.67 13.3317 680.1 13.8105 684.426 14.7682C688.753 15.7259 692.531 17.0257 695.759 18.6675L691.947 29.2365C685.903 26.0897 679.138 24.5164 671.652 24.5164C665.746 24.5164 661.281 25.4741 658.26 27.3895C655.306 29.2365 653.83 31.7334 653.83 34.8802C653.83 37.9585 654.929 40.3186 657.126 41.9604C659.324 43.5337 662.552 44.3204 666.81 44.3204H685.869V55.4025H666.089C661.213 55.4025 657.435 56.2576 654.757 57.9678C652.078 59.6096 650.739 62.0723 650.739 65.3559C650.739 68.6395 652.353 71.2389 655.581 73.1544C658.809 75.0698 663.685 76.0275 670.21 76.0275C674.743 76.0275 679.138 75.4118 683.396 74.1805C687.723 72.9492 691.329 71.239 694.213 69.0499L698.54 79.3111Z" fill="white"/>
<path d="M761.533 31.3913V106.093H748.655V79.5163C744.328 84.4417 738.456 86.9044 731.039 86.9044C725.682 86.9044 720.874 85.7414 716.616 83.4156C712.427 81.0897 709.13 77.8061 706.726 73.5648C704.391 69.3235 703.224 64.3982 703.224 58.7887C703.224 53.2477 704.425 48.3565 706.829 44.1152C709.233 39.8739 712.53 36.5903 716.719 34.2645C720.909 31.9386 725.682 30.7757 731.039 30.7757C734.816 30.7757 738.25 31.4256 741.341 32.7253C744.5 34.0251 747.144 35.9747 749.273 38.5742V31.3913H761.533ZM732.481 75.9249C737.22 75.9249 741.135 74.3515 744.225 71.2047C747.316 68.058 748.861 63.9193 748.861 58.7887C748.861 53.6581 747.316 49.5194 744.225 46.3727C741.135 43.2259 737.22 41.6525 732.481 41.6525C727.742 41.6525 723.827 43.2259 720.737 46.3727C717.715 49.5194 716.204 53.6581 716.204 58.7887C716.204 63.9193 717.715 68.058 720.737 71.2047C723.827 74.3515 727.742 75.9249 732.481 75.9249Z" fill="white"/>
<path d="M831.642 31.3913V86.1861H819.383V79.2085C817.322 81.6712 814.747 83.5866 811.656 84.9547C808.566 86.2545 805.235 86.9044 801.663 86.9044C794.315 86.9044 788.511 84.8863 784.253 80.8503C780.064 76.7458 777.969 70.6917 777.969 62.688V31.3913H790.846V60.9436C790.846 65.8689 791.945 69.563 794.143 72.0256C796.41 74.4199 799.603 75.6171 803.724 75.6171C808.325 75.6171 811.965 74.2147 814.644 71.41C817.391 68.5368 818.765 64.4324 818.765 59.0966V31.3913H831.642Z" fill="white"/>
<path d="M848.503 31.3913H861.38V86.1861H848.503V31.3913ZM854.993 22.3615C852.658 22.3615 850.701 21.6432 849.121 20.2067C847.541 18.7017 846.751 16.8547 846.751 14.6656C846.751 12.4766 847.541 10.6638 849.121 9.22718C850.701 7.72221 852.658 6.96973 854.993 6.96973C857.328 6.96973 859.285 7.68801 860.865 9.12457C862.445 10.4927 863.235 12.2371 863.235 14.3578C863.235 16.6152 862.445 18.5307 860.865 20.104C859.354 21.609 857.397 22.3615 854.993 22.3615Z" fill="white"/>
<path d="M896.413 86.9044C890.713 86.9044 886.249 85.3652 883.021 82.2868C879.861 79.1401 878.282 74.7278 878.282 69.0499V10.0481H891.159V68.1264C891.159 73.599 893.735 76.3353 898.886 76.3353C900.603 76.3353 902.148 75.9933 903.522 75.3092L904.14 85.5704C901.736 86.4597 899.16 86.9044 896.413 86.9044Z" fill="white"/>
<path d="M912.89 31.3913H925.767V86.1861H912.89V31.3913ZM919.38 22.3615C917.045 22.3615 915.088 21.6432 913.508 20.2067C911.928 18.7017 911.139 16.8547 911.139 14.6656C911.139 12.4766 911.928 10.6638 913.508 9.22718C915.088 7.72221 917.045 6.96973 919.38 6.96973C921.715 6.96973 923.673 7.68801 925.252 9.12457C926.832 10.4927 927.622 12.2371 927.622 14.3578C927.622 16.6152 926.832 18.5307 925.252 20.104C923.741 21.609 921.784 22.3615 919.38 22.3615Z" fill="white"/>
<path d="M973.163 30.7757C978.52 30.7757 983.293 31.9386 987.483 34.2645C991.741 36.5903 995.072 39.8739 997.475 44.1152C999.879 48.3565 1001.08 53.2477 1001.08 58.7887C1001.08 64.3298 999.879 69.2551 997.475 73.5648C995.072 77.8061 991.741 81.0897 987.483 83.4156C983.293 85.7414 978.52 86.9044 973.163 86.9044C969.385 86.9044 965.917 86.2545 962.758 84.9547C959.667 83.655 957.057 81.7054 954.928 79.1059V86.1861H942.669V10.0481H955.546V38.0611C957.744 35.6668 960.32 33.854 963.273 32.6227C966.295 31.3913 969.591 30.7757 973.163 30.7757ZM971.721 75.9249C976.459 75.9249 980.34 74.3515 983.362 71.2047C986.452 68.058 987.998 63.9193 987.998 58.7887C987.998 53.6581 986.452 49.5194 983.362 46.3727C980.34 43.2259 976.459 41.6525 971.721 41.6525C968.63 41.6525 965.848 42.3708 963.376 43.8074C960.903 45.1755 958.946 47.1594 957.504 49.7589C956.062 52.3584 955.34 55.3683 955.34 58.7887C955.34 62.2091 956.062 65.2191 957.504 67.8186C958.946 70.4181 960.903 72.4361 963.376 73.8727C965.848 75.2408 968.63 75.9249 971.721 75.9249Z" fill="white"/>
<path d="M1025.55 39.3951C1029.26 33.6488 1035.79 30.7757 1045.13 30.7757V42.9865C1044.03 42.7813 1043.03 42.6787 1042.14 42.6787C1037.13 42.6787 1033.21 44.1494 1030.39 47.091C1027.58 49.9641 1026.17 54.137 1026.17 59.6096V86.1861H1013.29V31.3913H1025.55V39.3951Z" fill="white"/>
<path d="M1056.05 31.3913H1068.93V86.1861H1056.05V31.3913ZM1062.54 22.3615C1060.21 22.3615 1058.25 21.6432 1056.67 20.2067C1055.09 18.7017 1054.3 16.8547 1054.3 14.6656C1054.3 12.4766 1055.09 10.6638 1056.67 9.22718C1058.25 7.72221 1060.21 6.96973 1062.54 6.96973C1064.88 6.96973 1066.83 7.68801 1068.41 9.12457C1069.99 10.4927 1070.78 12.2371 1070.78 14.3578C1070.78 16.6152 1069.99 18.5307 1068.41 20.104C1066.9 21.609 1064.94 22.3615 1062.54 22.3615Z" fill="white"/>
<path d="M1110.55 86.9044C1104.99 86.9044 1099.98 85.7072 1095.51 83.3129C1091.05 80.9187 1087.55 77.6009 1085.01 73.3596C1082.53 69.0499 1081.3 64.1929 1081.3 58.7887C1081.3 53.3845 1082.53 48.5617 1085.01 44.3204C1087.55 40.0792 1091.05 36.7614 1095.51 34.3671C1099.98 31.9728 1104.99 30.7757 1110.55 30.7757C1116.19 30.7757 1121.23 31.9728 1125.7 34.3671C1130.16 36.7614 1133.63 40.0792 1136.1 44.3204C1138.64 48.5617 1139.92 53.3845 1139.92 58.7887C1139.92 64.1929 1138.64 69.0499 1136.1 73.3596C1133.63 77.6009 1130.16 80.9187 1125.7 83.3129C1121.23 85.7072 1116.19 86.9044 1110.55 86.9044ZM1110.55 75.9249C1115.29 75.9249 1119.21 74.3515 1122.3 71.2047C1125.39 68.058 1126.93 63.9193 1126.93 58.7887C1126.93 53.6581 1125.39 49.5194 1122.3 46.3727C1119.21 43.2259 1115.29 41.6525 1110.55 41.6525C1105.82 41.6525 1101.9 43.2259 1098.81 46.3727C1095.79 49.5194 1094.28 53.6581 1094.28 58.7887C1094.28 63.9193 1095.79 68.058 1098.81 71.2047C1101.9 74.3515 1105.82 75.9249 1110.55 75.9249Z" fill="white"/>
<path d="M678.72 150.252H664.224L661.101 157.203H658.239L670.134 131.183H672.847L684.742 157.203H681.843L678.72 150.252ZM677.717 148.022L671.472 134.045L665.227 148.022H677.717Z" fill="white"/>
<path d="M688.489 137.651H691.128V157.203H688.489V137.651ZM689.827 133.376C689.282 133.376 688.823 133.19 688.452 132.819C688.08 132.447 687.894 132.001 687.894 131.48C687.894 130.985 688.08 130.551 688.452 130.179C688.823 129.808 689.282 129.622 689.827 129.622C690.372 129.622 690.831 129.808 691.202 130.179C691.574 130.526 691.76 130.948 691.76 131.443C691.76 131.988 691.574 132.447 691.202 132.819C690.831 133.19 690.372 133.376 689.827 133.376Z" fill="white"/>
<path d="M716.313 129.622V157.203H713.786V153.337C712.993 154.65 711.94 155.654 710.626 156.348C709.338 157.042 707.876 157.389 706.24 157.389C704.406 157.389 702.746 156.967 701.259 156.125C699.772 155.282 698.608 154.105 697.765 152.594C696.922 151.082 696.501 149.36 696.501 147.427C696.501 145.494 696.922 143.772 697.765 142.26C698.608 140.748 699.772 139.584 701.259 138.766C702.746 137.923 704.406 137.502 706.24 137.502C707.826 137.502 709.251 137.837 710.515 138.506C711.803 139.15 712.857 140.104 713.674 141.368V129.622H716.313ZM706.463 155.047C707.826 155.047 709.053 154.737 710.143 154.118C711.258 153.473 712.125 152.569 712.745 151.404C713.389 150.239 713.711 148.914 713.711 147.427C713.711 145.94 713.389 144.614 712.745 143.45C712.125 142.285 711.258 141.393 710.143 140.773C709.053 140.129 707.826 139.807 706.463 139.807C705.075 139.807 703.824 140.129 702.709 140.773C701.618 141.393 700.751 142.285 700.107 143.45C699.487 144.614 699.178 145.94 699.178 147.427C699.178 148.914 699.487 150.239 700.107 151.404C700.751 152.569 701.618 153.473 702.709 154.118C703.824 154.737 705.075 155.047 706.463 155.047Z" fill="white"/>
<path d="M730.503 137.502C733.055 137.502 735.013 138.146 736.376 139.435C737.739 140.699 738.42 142.582 738.42 145.085V157.203H735.893V154.155C735.298 155.171 734.418 155.964 733.254 156.534C732.114 157.104 730.751 157.389 729.165 157.389C726.984 157.389 725.249 156.868 723.961 155.828C722.672 154.787 722.028 153.411 722.028 151.702C722.028 150.041 722.623 148.703 723.812 147.687C725.026 146.671 726.947 146.163 729.574 146.163H735.781V144.974C735.781 143.288 735.31 142.012 734.369 141.145C733.427 140.253 732.052 139.807 730.243 139.807C729.004 139.807 727.814 140.017 726.674 140.439C725.534 140.835 724.556 141.393 723.738 142.111L722.548 140.141C723.54 139.299 724.729 138.654 726.117 138.208C727.504 137.738 728.967 137.502 730.503 137.502ZM729.574 155.307C731.061 155.307 732.337 154.973 733.402 154.304C734.468 153.61 735.261 152.618 735.781 151.33V148.133H729.648C726.303 148.133 724.63 149.298 724.63 151.627C724.63 152.767 725.064 153.672 725.931 154.341C726.798 154.985 728.012 155.307 729.574 155.307Z" fill="white"/>
<path d="M755.875 131.183H758.625V154.824H773.196V157.203H755.875V131.183Z" fill="white"/>
<path d="M784.907 157.389C783.024 157.389 781.326 156.967 779.815 156.125C778.303 155.258 777.114 154.068 776.246 152.556C775.379 151.045 774.945 149.335 774.945 147.427C774.945 145.519 775.379 143.809 776.246 142.297C777.114 140.786 778.303 139.609 779.815 138.766C781.326 137.923 783.024 137.502 784.907 137.502C786.791 137.502 788.488 137.923 790 138.766C791.511 139.609 792.688 140.786 793.531 142.297C794.398 143.809 794.832 145.519 794.832 147.427C794.832 149.335 794.398 151.045 793.531 152.556C792.688 154.068 791.511 155.258 790 156.125C788.488 156.967 786.791 157.389 784.907 157.389ZM784.907 155.047C786.295 155.047 787.534 154.737 788.624 154.118C789.74 153.473 790.607 152.569 791.226 151.404C791.846 150.239 792.156 148.914 792.156 147.427C792.156 145.94 791.846 144.614 791.226 143.45C790.607 142.285 789.74 141.393 788.624 140.773C787.534 140.129 786.295 139.807 784.907 139.807C783.52 139.807 782.268 140.129 781.153 140.773C780.063 141.393 779.195 142.285 778.551 143.45C777.931 144.614 777.622 145.94 777.622 147.427C777.622 148.914 777.931 150.239 778.551 151.404C779.195 152.569 780.063 153.473 781.153 154.118C782.268 154.737 783.52 155.047 784.907 155.047Z" fill="white"/>
<path d="M810.293 137.502C812.127 137.502 813.788 137.923 815.274 138.766C816.761 139.584 817.926 140.748 818.768 142.26C819.611 143.772 820.032 145.494 820.032 147.427C820.032 149.385 819.611 151.119 818.768 152.631C817.926 154.142 816.761 155.32 815.274 156.162C813.812 156.98 812.152 157.389 810.293 157.389C808.707 157.389 807.27 157.067 805.982 156.422C804.718 155.753 803.677 154.787 802.859 153.523V164.414H800.22V137.651H802.748V141.517C803.541 140.228 804.581 139.237 805.87 138.543C807.183 137.849 808.658 137.502 810.293 137.502ZM810.108 155.047C811.471 155.047 812.71 154.737 813.825 154.118C814.94 153.473 815.807 152.569 816.427 151.404C817.071 150.239 817.393 148.914 817.393 147.427C817.393 145.94 817.071 144.627 816.427 143.487C815.807 142.322 814.94 141.418 813.825 140.773C812.71 140.129 811.471 139.807 810.108 139.807C808.72 139.807 807.468 140.129 806.353 140.773C805.263 141.418 804.396 142.322 803.751 143.487C803.132 144.627 802.822 145.94 802.822 147.427C802.822 148.914 803.132 150.239 803.751 151.404C804.396 152.569 805.263 153.473 806.353 154.118C807.468 154.737 808.72 155.047 810.108 155.047Z" fill="white"/>
<path d="M842.437 148.245H826.081C826.23 150.277 827.011 151.925 828.423 153.188C829.836 154.427 831.62 155.047 833.776 155.047C834.99 155.047 836.105 154.836 837.121 154.415C838.137 153.969 839.017 153.325 839.76 152.482L841.247 154.192C840.38 155.233 839.289 156.026 837.976 156.571C836.687 157.116 835.263 157.389 833.701 157.389C831.694 157.389 829.91 156.967 828.349 156.125C826.812 155.258 825.61 154.068 824.743 152.556C823.876 151.045 823.442 149.335 823.442 147.427C823.442 145.519 823.851 143.809 824.669 142.297C825.511 140.786 826.651 139.609 828.089 138.766C829.551 137.923 831.186 137.502 832.995 137.502C834.804 137.502 836.427 137.923 837.865 138.766C839.302 139.609 840.429 140.786 841.247 142.297C842.065 143.784 842.474 145.494 842.474 147.427L842.437 148.245ZM832.995 139.77C831.112 139.77 829.526 140.377 828.237 141.591C826.973 142.78 826.255 144.342 826.081 146.275H839.946C839.773 144.342 839.042 142.78 837.753 141.591C836.489 140.377 834.903 139.77 832.995 139.77Z" fill="white"/>
<path d="M853.087 157.389C851.501 157.389 849.977 157.166 848.515 156.72C847.077 156.249 845.95 155.666 845.132 154.973L846.322 152.891C847.139 153.535 848.168 154.068 849.407 154.489C850.646 154.886 851.934 155.084 853.273 155.084C855.057 155.084 856.37 154.812 857.213 154.266C858.08 153.696 858.514 152.903 858.514 151.887C858.514 151.169 858.278 150.611 857.807 150.215C857.337 149.793 856.742 149.484 856.023 149.285C855.305 149.062 854.351 148.852 853.161 148.654C851.575 148.356 850.299 148.059 849.332 147.761C848.366 147.439 847.536 146.906 846.842 146.163C846.173 145.42 845.838 144.391 845.838 143.078C845.838 141.442 846.52 140.104 847.883 139.063C849.246 138.023 851.141 137.502 853.57 137.502C854.834 137.502 856.098 137.676 857.361 138.023C858.625 138.345 859.666 138.778 860.484 139.324L859.331 141.442C857.721 140.327 855.8 139.77 853.57 139.77C851.885 139.77 850.609 140.067 849.741 140.662C848.899 141.256 848.477 142.037 848.477 143.004C848.477 143.747 848.713 144.342 849.184 144.788C849.679 145.234 850.286 145.568 851.005 145.791C851.724 145.99 852.715 146.2 853.979 146.423C855.54 146.721 856.791 147.018 857.733 147.315C858.675 147.613 859.48 148.121 860.149 148.839C860.818 149.558 861.153 150.549 861.153 151.813C861.153 153.523 860.434 154.886 858.997 155.902C857.584 156.893 855.614 157.389 853.087 157.389Z" fill="white"/>
<path d="M876.318 129.622H878.771V164.414H876.318V129.622Z" fill="white"/>
<path d="M908.309 157.426C905.732 157.426 903.402 156.856 901.321 155.716C899.264 154.576 897.641 153.003 896.451 150.995C895.287 148.963 894.704 146.696 894.704 144.193C894.704 141.69 895.287 139.435 896.451 137.428C897.641 135.396 899.276 133.81 901.358 132.67C903.439 131.53 905.769 130.96 908.346 130.96C910.279 130.96 912.063 131.282 913.699 131.927C915.334 132.571 916.722 133.512 917.862 134.752L916.115 136.499C914.083 134.442 911.518 133.413 908.42 133.413C906.364 133.413 904.493 133.884 902.807 134.826C901.122 135.768 899.797 137.056 898.83 138.692C897.888 140.327 897.418 142.161 897.418 144.193C897.418 146.225 897.888 148.059 898.83 149.694C899.797 151.33 901.122 152.618 902.807 153.56C904.493 154.502 906.364 154.973 908.42 154.973C911.543 154.973 914.107 153.932 916.115 151.85L917.862 153.597C916.722 154.836 915.322 155.79 913.661 156.459C912.026 157.104 910.242 157.426 908.309 157.426Z" fill="white"/>
<path d="M941.493 157.203L935.546 148.839C934.877 148.914 934.183 148.951 933.464 148.951H926.476V157.203H923.726V131.183H933.464C936.785 131.183 939.387 131.976 941.27 133.562C943.154 135.148 944.095 137.329 944.095 140.104C944.095 142.136 943.575 143.858 942.534 145.271C941.518 146.659 940.056 147.662 938.148 148.282L944.504 157.203H941.493ZM933.39 146.609C935.967 146.609 937.937 146.039 939.3 144.899C940.663 143.759 941.345 142.161 941.345 140.104C941.345 137.998 940.663 136.387 939.3 135.272C937.937 134.132 935.967 133.562 933.39 133.562H926.476V146.609H933.39Z" fill="white"/>
<path d="M960.326 131.183C963.647 131.183 966.249 131.976 968.132 133.562C970.016 135.148 970.957 137.329 970.957 140.104C970.957 142.88 970.016 145.06 968.132 146.646C966.249 148.207 963.647 148.988 960.326 148.988H953.338V157.203H950.587V131.183H960.326ZM960.252 146.572C962.829 146.572 964.799 146.014 966.162 144.899C967.525 143.759 968.207 142.161 968.207 140.104C968.207 137.998 967.525 136.387 966.162 135.272C964.799 134.132 962.829 133.562 960.252 133.562H953.338V146.572H960.252Z" fill="white"/>
<path d="M995.062 157.426C993.055 157.426 991.259 156.893 989.673 155.828C988.111 154.762 986.885 153.238 985.993 151.256C985.125 149.248 984.692 146.894 984.692 144.193C984.692 141.492 985.125 139.15 985.993 137.168C986.885 135.16 988.111 133.624 989.673 132.558C991.259 131.493 993.055 130.96 995.062 130.96C997.07 130.96 998.854 131.493 1000.42 132.558C1002 133.624 1003.24 135.16 1004.13 137.168C1005.02 139.15 1005.47 141.492 1005.47 144.193C1005.47 146.894 1005.02 149.248 1004.13 151.256C1003.24 153.238 1002 154.762 1000.42 155.828C998.854 156.893 997.07 157.426 995.062 157.426ZM995.062 154.973C996.574 154.973 997.9 154.551 999.04 153.709C1000.2 152.866 1001.11 151.64 1001.75 150.029C1002.4 148.418 1002.72 146.473 1002.72 144.193C1002.72 141.913 1002.4 139.968 1001.75 138.357C1001.11 136.746 1000.2 135.52 999.04 134.677C997.9 133.835 996.574 133.413 995.062 133.413C993.551 133.413 992.213 133.835 991.048 134.677C989.908 135.52 989.016 136.746 988.372 138.357C987.727 139.968 987.405 141.913 987.405 144.193C987.405 146.473 987.727 148.418 988.372 150.029C989.016 151.64 989.908 152.866 991.048 153.709C992.213 154.551 993.551 154.973 995.062 154.973Z" fill="white"/>
<path d="M1020.08 141.628C1021.79 141.628 1023.3 141.95 1024.62 142.595C1025.96 143.239 1027 144.156 1027.74 145.345C1028.48 146.51 1028.86 147.873 1028.86 149.434C1028.86 151.02 1028.47 152.42 1027.7 153.634C1026.93 154.849 1025.87 155.79 1024.51 156.459C1023.17 157.104 1021.66 157.426 1019.97 157.426C1016.53 157.426 1013.89 156.298 1012.05 154.043C1010.22 151.764 1009.3 148.554 1009.3 144.416C1009.3 141.517 1009.8 139.063 1010.79 137.056C1011.78 135.049 1013.17 133.537 1014.95 132.521C1016.74 131.48 1018.82 130.96 1021.2 130.96C1023.78 130.96 1025.83 131.431 1027.37 132.373L1026.29 134.528C1025.05 133.711 1023.37 133.302 1021.24 133.302C1018.36 133.302 1016.11 134.219 1014.47 136.053C1012.83 137.862 1012.02 140.501 1012.02 143.97C1012.02 144.589 1012.05 145.296 1012.13 146.089C1012.77 144.676 1013.8 143.586 1015.21 142.818C1016.63 142.025 1018.25 141.628 1020.08 141.628ZM1019.86 155.158C1021.74 155.158 1023.27 154.65 1024.43 153.634C1025.62 152.594 1026.22 151.218 1026.22 149.508C1026.22 147.799 1025.62 146.436 1024.43 145.42C1023.27 144.404 1021.68 143.896 1019.67 143.896C1018.36 143.896 1017.2 144.143 1016.18 144.639C1015.19 145.135 1014.41 145.816 1013.84 146.683C1013.27 147.551 1012.98 148.517 1012.98 149.583C1012.98 150.574 1013.24 151.491 1013.76 152.333C1014.31 153.176 1015.1 153.857 1016.14 154.378C1017.18 154.898 1018.42 155.158 1019.86 155.158Z" fill="white"/>
<path d="M1041.72 125.905H1044.14L1031.87 160.92H1029.46L1041.72 125.905Z" fill="white"/>
<path d="M1054.82 141.628C1056.53 141.628 1058.04 141.95 1059.36 142.595C1060.69 143.239 1061.74 144.156 1062.48 145.345C1063.22 146.51 1063.59 147.873 1063.59 149.434C1063.59 151.02 1063.21 152.42 1062.44 153.634C1061.67 154.849 1060.61 155.79 1059.25 156.459C1057.91 157.104 1056.4 157.426 1054.71 157.426C1051.27 157.426 1048.63 156.298 1046.79 154.043C1044.96 151.764 1044.04 148.554 1044.04 144.416C1044.04 141.517 1044.54 139.063 1045.53 137.056C1046.52 135.049 1047.91 133.537 1049.69 132.521C1051.48 131.48 1053.56 130.96 1055.94 130.96C1058.51 130.96 1060.57 131.431 1062.11 132.373L1061.03 134.528C1059.79 133.711 1058.11 133.302 1055.97 133.302C1053.1 133.302 1050.84 134.219 1049.21 136.053C1047.57 137.862 1046.76 140.501 1046.76 143.97C1046.76 144.589 1046.79 145.296 1046.87 146.089C1047.51 144.676 1048.54 143.586 1049.95 142.818C1051.36 142.025 1052.99 141.628 1054.82 141.628ZM1054.6 155.158C1056.48 155.158 1058.01 154.65 1059.17 153.634C1060.36 152.594 1060.96 151.218 1060.96 149.508C1060.96 147.799 1060.36 146.436 1059.17 145.42C1058.01 144.404 1056.42 143.896 1054.41 143.896C1053.1 143.896 1051.93 144.143 1050.92 144.639C1049.93 145.135 1049.15 145.816 1048.58 146.683C1048.01 147.551 1047.72 148.517 1047.72 149.583C1047.72 150.574 1047.98 151.491 1048.5 152.333C1049.05 153.176 1049.84 153.857 1050.88 154.378C1051.92 154.898 1053.16 155.158 1054.6 155.158Z" fill="white"/>
<path d="M1084.46 154.824V157.203H1066.21V155.307L1077.03 144.713C1078.39 143.375 1079.31 142.223 1079.78 141.256C1080.27 140.265 1080.52 139.274 1080.52 138.283C1080.52 136.746 1079.99 135.557 1078.92 134.714C1077.88 133.847 1076.38 133.413 1074.42 133.413C1071.38 133.413 1069.01 134.38 1067.33 136.313L1065.43 134.677C1066.45 133.488 1067.73 132.571 1069.3 131.927C1070.88 131.282 1072.67 130.96 1074.65 130.96C1077.3 130.96 1079.39 131.592 1080.93 132.856C1082.49 134.095 1083.27 135.805 1083.27 137.985C1083.27 139.324 1082.97 140.612 1082.38 141.851C1081.78 143.09 1080.66 144.515 1079 146.126L1070.15 154.824H1084.46Z" fill="white"/>
<path d="M1096.67 142.334C1099.39 142.483 1101.46 143.227 1102.87 144.565C1104.31 145.878 1105.03 147.6 1105.03 149.731C1105.03 151.218 1104.67 152.544 1103.95 153.709C1103.23 154.849 1102.17 155.753 1100.76 156.422C1099.34 157.091 1097.62 157.426 1095.59 157.426C1093.71 157.426 1091.92 157.129 1090.24 156.534C1088.58 155.914 1087.24 155.097 1086.22 154.081L1087.52 151.962C1088.39 152.854 1089.54 153.585 1090.98 154.155C1092.42 154.7 1093.95 154.973 1095.59 154.973C1097.72 154.973 1099.37 154.514 1100.53 153.597C1101.7 152.656 1102.28 151.367 1102.28 149.731C1102.28 148.121 1101.7 146.857 1100.53 145.94C1099.37 145.023 1097.61 144.565 1095.25 144.565H1093.4V142.595L1100.61 133.562H1087.3V131.183H1104.03V133.079L1096.67 142.334Z" fill="white"/>
<path d="M1116.01 131.183V157.203H1113.34V133.562H1107.2V131.183H1116.01Z" fill="white"/>
<path d="M1140 154.824V157.203H1121.75V155.307L1132.57 144.713C1133.93 143.375 1134.85 142.223 1135.32 141.256C1135.81 140.265 1136.06 139.274 1136.06 138.283C1136.06 136.746 1135.53 135.557 1134.46 134.714C1133.42 133.847 1131.92 133.413 1129.96 133.413C1126.92 133.413 1124.55 134.38 1122.86 136.313L1120.97 134.677C1121.98 133.488 1123.27 132.571 1124.83 131.927C1126.42 131.282 1128.2 130.96 1130.19 130.96C1132.84 130.96 1134.93 131.592 1136.47 132.856C1138.03 134.095 1138.81 135.805 1138.81 137.985C1138.81 139.324 1138.51 140.612 1137.92 141.851C1137.32 143.09 1136.2 144.515 1134.54 146.126L1125.69 154.824H1140Z" fill="white"/>
</svg>
